<svg width="53" height="53" viewBox="0 0 53 53" fill="none" xmlns="http://www.w3.org/2000/svg">
<g id="&#209;&#129;&#209;&#130;&#209;&#128;&#208;&#181;&#208;&#187;&#208;&#190;&#209;&#135;&#208;&#186;&#208;&#176;">
<circle id="&#208;&#186;&#209;&#128;&#209;&#131;&#208;&#179;" cx="26.5" cy="26.5" r="24.75" stroke="white" stroke-width="3.5"/>
<path id="&#209;&#129;&#209;&#130;&#209;&#128;&#208;&#181;&#208;&#187;&#208;&#186;&#208;&#176;" d="M15 25.2854C14.053 25.2854 13.2854 26.053 13.2854 27C13.2854 27.947 14.053 28.7146 15 28.7146V25.2854ZM40.2124 28.2124C40.882 27.5428 40.882 26.4572 40.2124 25.7876L29.3005 14.8756C28.6309 14.206 27.5453 14.206 26.8756 14.8756C26.206 15.5453 26.206 16.6309 26.8756 17.3005L36.5751 27L26.8756 36.6995C26.206 37.3691 26.206 38.4547 26.8756 39.1244C27.5453 39.794 28.6309 39.794 29.3005 39.1244L40.2124 28.2124ZM15 28.7146H39V25.2854H15V28.7146Z" fill="white"/>
</g>
</svg>
