<svg width="29" height="16" viewBox="0 0 29 16" fill="none" xmlns="http://www.w3.org/2000/svg">
<g id="&#209;&#129;&#209;&#130;&#209;&#128;&#208;&#181;&#208;&#187;&#208;&#190;&#209;&#135;&#208;&#186;&#208;&#184;">
<path id="&#208;&#178;&#208;&#191;&#209;&#128;&#208;&#176;&#208;&#178;&#208;&#190;" d="M1 7C0.447715 7 0 7.44772 0 8C0 8.55228 0.447715 9 1 9V7ZM28.7071 8.70711C29.0976 8.31658 29.0976 7.68342 28.7071 7.29289L22.3431 0.928932C21.9526 0.538408 21.3195 0.538408 20.9289 0.928932C20.5384 1.31946 20.5384 1.95262 20.9289 2.34315L26.5858 8L20.9289 13.6569C20.5384 14.0474 20.5384 14.6805 20.9289 15.0711C21.3195 15.4616 21.9526 15.4616 22.3431 15.0711L28.7071 8.70711ZM1 9H28V7H1V9Z" fill="black"/>
</g>
</svg>
