<svg width="60" height="60" viewBox="0 0 60 60" fill="none" xmlns="http://www.w3.org/2000/svg">
<g id="loon-icon 2">
<g id="Layer_1">
<rect id="Rectangle 42" x="19" y="21" width="21" height="19" fill="white"/>
<path id="Vector" d="M30.0065 15C27.0398 15 24.1397 15.8797 21.6729 17.528C19.2062 19.1762 17.2836 21.5189 16.1483 24.2597C15.013 27.0006 14.7159 30.0166 15.2947 32.9264C15.8735 35.8361 17.3021 38.5088 19.3999 40.6066C21.4977 42.7044 24.1704 44.133 27.0801 44.7118C29.9898 45.2906 33.0058 44.9935 35.7467 43.8582C38.4876 42.7229 40.8303 40.8003 42.4785 38.3336C44.1267 35.8668 45.0065 32.9667 45.0065 30C45.0066 28.0301 44.6188 26.0795 43.865 24.2596C43.1112 22.4396 42.0064 20.7859 40.6134 19.393C39.2205 18.0001 37.5669 16.8952 35.7469 16.1415C33.927 15.3877 31.9763 14.9998 30.0065 15ZM34.7757 37.7287C34.7196 37.8687 34.6342 37.9951 34.5252 38.0994C34.4162 38.2036 34.2862 38.2834 34.1439 38.3333C34.0015 38.3833 33.8502 38.4022 33.6999 38.3889C33.5497 38.3755 33.404 38.3302 33.2727 38.256L29.2007 35.0919L26.5873 37.503C26.5266 37.5478 26.4557 37.5766 26.381 37.5868C26.3063 37.5971 26.2302 37.5883 26.1598 37.5614L26.6608 33.0787L26.6768 33.0914L26.687 33.0029C26.687 33.0029 34.0145 26.3317 34.313 26.0474C34.6152 25.7639 34.5155 25.7024 34.5155 25.7024C34.5327 25.3566 33.9733 25.7024 33.9733 25.7024L24.2645 31.9485L20.2212 30.5715C20.2212 30.5715 19.6002 30.3488 19.5417 29.859C19.4802 29.373 20.2415 29.109 20.2415 29.109L36.317 22.7227C36.317 22.7227 37.6385 22.134 37.6385 23.109L34.7757 37.7287Z" fill="#26A4E3"/>
</g>
</g>
</svg>
