<svg width="30" height="30" viewBox="0 0 30 30" fill="none" xmlns="http://www.w3.org/2000/svg">
<path d="M15.0065 5.16808e-08C12.0398 5.16808e-08 9.13966 0.879735 6.67292 2.52796C4.20619 4.17618 2.2836 6.51886 1.14828 9.25975C0.012969 12.0006 -0.284081 15.0166 0.294697 17.9264C0.873476 20.8361 2.30209 23.5088 4.39987 25.6066C6.49766 27.7044 9.17041 29.133 12.0801 29.7118C14.9898 30.2906 18.0058 29.9935 20.7467 28.8582C23.4876 27.7229 25.8303 25.8003 27.4785 23.3336C29.1267 20.8668 30.0065 17.9667 30.0065 15C30.0066 13.0301 29.6188 11.0795 28.865 9.25955C28.1112 7.4396 27.0064 5.78594 25.6134 4.39303C24.2205 3.00012 22.5669 1.89524 20.7469 1.14147C18.927 0.387712 16.9763 -0.000163468 15.0065 5.16808e-08ZM19.7757 22.7287C19.7196 22.8687 19.6342 22.9951 19.5252 23.0994C19.4162 23.2036 19.2862 23.2834 19.1439 23.3333C19.0015 23.3833 18.8502 23.4022 18.6999 23.3889C18.5497 23.3755 18.404 23.3302 18.2727 23.256L14.2007 20.0919L11.5873 22.503C11.5266 22.5478 11.4557 22.5766 11.381 22.5868C11.3063 22.5971 11.2302 22.5883 11.1598 22.5614L11.6608 18.0787L11.6768 18.0914L11.687 18.0029C11.687 18.0029 19.0145 11.3317 19.313 11.0474C19.6152 10.7639 19.5155 10.7024 19.5155 10.7024C19.5327 10.3566 18.9733 10.7024 18.9733 10.7024L9.26447 16.9485L5.22124 15.5715C5.22124 15.5715 4.60024 15.3488 4.54174 14.859C4.48024 14.373 5.24148 14.109 5.24148 14.109L21.317 7.72273C21.317 7.72273 22.6385 7.13396 22.6385 8.109L19.7757 22.7287Z" fill="#D3D3D3"/>
</svg>
